<?xml version="1.0" encoding="UTF-8"?> <svg xmlns="http://www.w3.org/2000/svg" width="117" height="78" viewBox="0 0 117 78" fill="none"><path d="M17.5878 39.0001L15.543 41.0431L13.5 39.0001L15.543 36.9571L17.5878 39.0001ZM22.5451 34.0393L26.0461 37.5421L28.0891 35.4991L22.5451 29.9551L17.001 35.4991L19.044 37.5421L22.5451 34.0393ZM29.5489 36.9571L27.5059 39.0001L29.5489 41.0431L31.5901 39.0001L29.5489 36.9571ZM22.5451 43.961L19.044 40.4599L17.001 42.5012L22.5451 48.0452L28.0891 42.5012L26.0461 40.4599L22.5451 43.961ZM22.5451 41.0431L24.5881 39.0001L22.5451 36.9571L20.5021 39.0001L22.5451 41.0431ZM44.1062 41.2393V41.211C44.1062 39.8785 43.3993 39.2122 42.2487 38.7739C42.9557 38.3763 43.553 37.7524 43.553 36.6337V36.6054C43.553 35.0467 42.3053 34.0393 40.2782 34.0393H35.6761V43.961H40.3948C42.634 43.961 44.1097 43.0543 44.1097 41.2393H44.1062ZM41.3845 36.9978C41.3845 37.7348 40.7748 38.0476 39.8116 38.0476H37.8022V35.9533H39.9566C40.8773 35.9533 41.3881 36.3209 41.3881 36.973L41.3845 36.9978ZM41.9377 40.9672C41.9377 41.7041 41.3563 42.0434 40.3913 42.0434H37.8022V39.8644H40.3242C41.4446 39.8644 41.9412 40.2761 41.9412 40.9424L41.9377 40.9672ZM48.6923 43.961V34.0393H46.5027V43.961H48.6923ZM60.4255 43.961V34.0393H58.2641V40.1489L53.6161 34.0393H51.6031V43.961H53.7574V37.6535L58.561 43.961H60.4255ZM72.5156 43.961L68.2564 33.9686H66.2435L61.9931 43.961H64.2181L65.1283 41.7359H69.3239L70.2305 43.961H72.5156ZM68.548 39.8078H65.9041L67.2225 36.5913L68.548 39.8078ZM82.9197 43.961V34.0393H80.7583V40.1489L76.1085 34.0393H74.0974V43.961H76.2499V37.6535L81.0552 43.961H82.9197ZM94.1863 42.3598L92.799 40.9566C92.0196 41.6635 91.325 42.1177 90.1904 42.1177C88.4903 42.1177 87.3133 40.7038 87.3133 39.0001V38.9719C87.3133 37.2717 88.5186 35.8826 90.1904 35.8826C91.1819 35.8826 91.9577 36.3068 92.7283 37.0013L94.1121 35.4001C93.1913 34.4935 92.0726 33.8697 90.201 33.8697C87.1542 33.8697 85.0281 36.1795 85.0281 38.9948V39.0231C85.0281 41.872 87.1966 44.1253 90.1162 44.1253C92.0267 44.1306 93.1595 43.4502 94.1792 42.3598H94.1863ZM103.5 43.961V42.0169H98.1062V39.9297H102.784V37.9857H98.1062V35.9816H103.422V34.0376H95.9377V43.9592L103.5 43.961Z" fill="#D9D9D9"></path></svg> 