<?xml version="1.0" encoding="UTF-8"?> <svg xmlns="http://www.w3.org/2000/svg" width="93" height="62" viewBox="0 0 93 62" fill="none"><path fill-rule="evenodd" clip-rule="evenodd" d="M82.2686 31.4958C82.2686 26.4086 79.8045 22.3945 75.0949 22.3945C70.3654 22.3945 67.5039 26.4086 67.5039 31.4561C67.5039 37.4375 70.8821 40.458 75.7308 40.458C78.0956 40.458 79.884 39.9215 81.2353 39.1663V35.192C79.884 35.8676 78.334 36.2849 76.3667 36.2849C74.4392 36.2849 72.7302 35.6093 72.5116 33.2644H82.2289C82.2289 33.0061 82.2686 31.9727 82.2686 31.4958ZM72.452 29.608C72.452 27.3625 73.8231 26.4285 75.0751 26.4285C76.2872 26.4285 77.5789 27.3625 77.5789 29.608H72.452Z" fill="#D9D9D9"></path><path fill-rule="evenodd" clip-rule="evenodd" d="M59.8336 22.3945C57.8862 22.3945 56.6342 23.3086 55.9387 23.9445L55.6804 22.7125H51.3086V45.883L56.2765 44.8298L56.2964 39.2061C57.0118 39.7227 58.065 40.458 59.8137 40.458C63.3708 40.458 66.6099 37.5965 66.6099 31.2971C66.59 25.5343 63.3112 22.3945 59.8336 22.3945ZM58.6413 36.0862C57.4688 36.0862 56.7733 35.6689 56.2964 35.1522L56.2765 27.7798C56.7932 27.2035 57.5086 26.8061 58.6413 26.8061C60.4496 26.8061 61.7015 28.833 61.7015 31.4362C61.7015 34.099 60.4695 36.0862 58.6413 36.0862Z" fill="#D9D9D9"></path><path fill-rule="evenodd" clip-rule="evenodd" d="M49.4605 16.1152L44.4727 17.1684V21.2223L49.4605 20.1492V16.1152Z" fill="#D9D9D9"></path><path fill-rule="evenodd" clip-rule="evenodd" d="M44.4727 22.7324H49.4605V40.1202H44.4727V22.7324Z" fill="#D9D9D9"></path><path fill-rule="evenodd" clip-rule="evenodd" d="M39.1278 24.2033L38.8099 22.7328H34.5176V40.1206H39.4855V28.3366C40.658 26.8065 42.6451 27.0847 43.2612 27.3033V22.7328C42.6253 22.4943 40.3003 22.0571 39.1278 24.2033Z" fill="#D9D9D9"></path><path fill-rule="evenodd" clip-rule="evenodd" d="M29.1909 18.4199L24.3421 19.4533L24.3223 35.3706C24.3223 38.3116 26.528 40.4776 29.4691 40.4776C31.0985 40.4776 32.2909 40.1795 32.9466 39.8218V35.7879C32.3107 36.0462 29.171 36.9603 29.171 34.0193V26.9648H32.9466V22.7321H29.171L29.1909 18.4199Z" fill="#D9D9D9"></path><path fill-rule="evenodd" clip-rule="evenodd" d="M15.758 27.7798C15.758 27.0048 16.3939 26.7067 17.4471 26.7067C18.9574 26.7067 20.8651 27.1638 22.3753 27.9785V23.3086C20.726 22.6529 19.0965 22.3945 17.4471 22.3945C13.4132 22.3945 10.7305 24.5009 10.7305 28.0183C10.7305 33.5029 18.2818 32.6285 18.2818 34.9933C18.2818 35.9074 17.4869 36.2054 16.3741 36.2054C14.7247 36.2054 12.6183 35.5298 10.9491 34.6157V39.3452C12.7971 40.14 14.6651 40.4779 16.3741 40.4779C20.5074 40.4779 23.3491 38.4311 23.3491 34.874C23.3292 28.9522 15.758 30.0054 15.758 27.7798Z" fill="#D9D9D9"></path></svg> 